# xmcd
#
# Track frame offsets: 
#        150
#        11805
#        23604
#        40233
#        54748
#        70495
#        85374
#        98538
#        114601
#        127106
#
# Disc length: 1902 seconds
#
# Revision: 1
# Processed by: cddbd v1.5.2PL0 Copyright (c) Steve Scherf et al.
# Submitted via: ExactAudioCopy v1.3
#
DISCID=85076c0a
DTITLE=Robert Finley - Goin' Platinum
DYEAR=2017
DGENRE=Blues
TTITLE0=Get It While You Can
TTITLE1=Medicine Woman
TTITLE2=If You Forget My Love
TTITLE3=Three Jumpers
TTITLE4=Honey, Let Me Stay the Night
TTITLE5=You Don't Have to Do Right
TTITLE6=Complications
TTITLE7=Real Love Is Like Hard Time
TTITLE8=Empty Arms
TTITLE9=Holy Wine
EXTD=
EXTT0=
EXTT1=
EXTT2=
EXTT3=
EXTT4=
EXTT5=
EXTT6=
EXTT7=
EXTT8=
EXTT9=
PLAYORDER=
